<svg width="113" height="30" viewBox="0 0 113 30" fill="none" xmlns="http://www.w3.org/2000/svg">
<path d="M13.92 0.479998L23.68 25.64C24.08 26.6533 24.5333 27.3333 25.04 27.68C25.5467 28 26.0133 28.1733 26.44 28.2V29C25.9067 28.9467 25.2533 28.92 24.48 28.92C23.7067 28.8933 22.9333 28.88 22.16 28.88C21.12 28.88 20.1467 28.8933 19.24 28.92C18.3333 28.92 17.6 28.9467 17.04 29V28.2C18.4 28.1467 19.2667 27.92 19.64 27.52C20.0133 27.0933 19.9333 26.2 19.4 24.84L11.96 4.96L12.6 4.44L5.64 22.52C5.21333 23.5867 4.96 24.4933 4.88 25.24C4.8 25.96 4.86667 26.5333 5.08 26.96C5.32 27.3867 5.70667 27.6933 6.24 27.88C6.8 28.0667 7.49333 28.1733 8.32 28.2V29C7.57333 28.9467 6.78667 28.92 5.96 28.92C5.16 28.8933 4.41333 28.88 3.72 28.88C3.05333 28.88 2.48 28.8933 2 28.92C1.54667 28.92 1.12 28.9467 0.72 29V28.2C1.25333 28.0667 1.8 27.76 2.36 27.28C2.92 26.7733 3.42667 25.92 3.88 24.72L13.28 0.479998C13.3867 0.479998 13.4933 0.479998 13.6 0.479998C13.7067 0.479998 13.8133 0.479998 13.92 0.479998ZM18.8 17.48V18.28H6.88L7.28 17.48H18.8ZM37.2941 0.68V1.48C36.3874 1.50667 35.6941 1.61333 35.2141 1.8C34.7607 1.96 34.4541 2.28 34.2941 2.76C34.1341 3.21333 34.0541 3.93333 34.0541 4.92V24.76C34.0541 25.72 34.1341 26.44 34.2941 26.92C34.4541 27.4 34.7607 27.72 35.2141 27.88C35.6941 28.0133 36.3874 28.08 37.2941 28.08H40.2141C41.4674 28.08 42.4807 27.9467 43.2541 27.68C44.0541 27.4133 44.6807 27 45.1341 26.44C45.6141 25.8533 45.9741 25.08 46.2141 24.12C46.4541 23.16 46.6407 21.9867 46.7741 20.6H47.6941C47.6141 21.4267 47.5741 22.52 47.5741 23.88C47.5741 24.3867 47.5874 25.12 47.6141 26.08C47.6674 27.0133 47.7474 27.9867 47.8541 29C46.4941 28.9467 44.9607 28.92 43.2541 28.92C41.5474 28.8933 40.0274 28.88 38.6941 28.88C38.1074 28.88 37.3474 28.88 36.4141 28.88C35.5074 28.88 34.5207 28.8933 33.4541 28.92C32.3874 28.92 31.3074 28.9333 30.2141 28.96C29.1207 28.96 28.0807 28.9733 27.0941 29V28.2C28.0007 28.1467 28.6807 28.04 29.1341 27.88C29.6141 27.72 29.9341 27.4 30.0941 26.92C30.2541 26.44 30.3341 25.72 30.3341 24.76V4.92C30.3341 3.93333 30.2541 3.21333 30.0941 2.76C29.9341 2.28 29.6141 1.96 29.1341 1.8C28.6807 1.61333 28.0007 1.50667 27.0941 1.48V0.68C27.6541 0.706666 28.3874 0.733332 29.2941 0.759999C30.2007 0.786665 31.1741 0.799998 32.2141 0.799998C33.1474 0.799998 34.0674 0.786665 34.9741 0.759999C35.9074 0.733332 36.6807 0.706666 37.2941 0.68ZM60.8097 0.68V1.48C59.903 1.50667 59.2097 1.61333 58.7297 1.8C58.2764 1.96 57.9697 2.28 57.8097 2.76C57.6497 3.21333 57.5697 3.93333 57.5697 4.92V24.76C57.5697 25.72 57.6497 26.44 57.8097 26.92C57.9697 27.4 58.2764 27.72 58.7297 27.88C59.2097 28.04 59.903 28.1467 60.8097 28.2V29C60.1964 28.9467 59.423 28.92 58.4897 28.92C57.583 28.8933 56.663 28.88 55.7297 28.88C54.6897 28.88 53.7164 28.8933 52.8097 28.92C51.903 28.92 51.1697 28.9467 50.6097 29V28.2C51.5164 28.1467 52.1964 28.04 52.6497 27.88C53.1297 27.72 53.4497 27.4 53.6097 26.92C53.7697 26.44 53.8497 25.72 53.8497 24.76V4.92C53.8497 3.93333 53.7697 3.21333 53.6097 2.76C53.4497 2.28 53.1297 1.96 52.6497 1.8C52.1964 1.61333 51.5164 1.50667 50.6097 1.48V0.68C51.1697 0.706666 51.903 0.733332 52.8097 0.759999C53.7164 0.786665 54.6897 0.799998 55.7297 0.799998C56.663 0.799998 57.583 0.786665 58.4897 0.759999C59.423 0.733332 60.1964 0.706666 60.8097 0.68ZM77.0119 0.119998C78.7719 0.119998 80.2119 0.386665 81.3319 0.919999C82.4785 1.42667 83.4919 2.02667 84.3719 2.72C84.9052 3.12 85.3052 3.17333 85.5719 2.88C85.8652 2.56 86.0652 1.82667 86.1719 0.68H87.0919C87.0385 1.66667 86.9985 2.86667 86.9719 4.28C86.9452 5.69333 86.9319 7.56 86.9319 9.88H86.0119C85.8252 8.73333 85.6519 7.82667 85.4919 7.16C85.3319 6.46667 85.1319 5.88 84.8919 5.4C84.6785 4.92 84.3852 4.44 84.0119 3.96C83.1852 2.86666 82.1452 2.08 80.8919 1.6C79.6385 1.09333 78.3185 0.839998 76.9319 0.839998C75.6252 0.839998 74.4385 1.17333 73.3719 1.84C72.3319 2.48 71.4252 3.41333 70.6519 4.64C69.9052 5.86667 69.3185 7.34667 68.8919 9.08C68.4919 10.8133 68.2919 12.76 68.2919 14.92C68.2919 17.16 68.5185 19.1467 68.9719 20.88C69.4252 22.5867 70.0519 24.0267 70.8519 25.2C71.6785 26.3733 72.6385 27.2667 73.7319 27.88C74.8519 28.4667 76.0519 28.76 77.3319 28.76C78.5319 28.76 79.7852 28.52 81.0919 28.04C82.3985 27.56 83.4252 26.7867 84.1719 25.72C84.7585 24.9467 85.1585 24.1067 85.3719 23.2C85.6119 22.2933 85.8252 21.0267 86.0119 19.4H86.9319C86.9319 21.8267 86.9452 23.7867 86.9719 25.28C86.9985 26.7467 87.0385 27.9867 87.0919 29H86.1719C86.0652 27.8533 85.8785 27.1333 85.6119 26.84C85.3719 26.5467 84.9585 26.5867 84.3719 26.96C83.3852 27.6533 82.3319 28.2667 81.2119 28.8C80.1185 29.3067 78.7052 29.56 76.9719 29.56C74.4385 29.56 72.2119 28.9867 70.2919 27.84C68.3985 26.6933 66.9185 25.04 65.8519 22.88C64.8119 20.72 64.2919 18.12 64.2919 15.08C64.2919 12.0933 64.8385 9.48 65.9319 7.24C67.0252 5 68.5185 3.25333 70.4119 2C72.3319 0.746665 74.5319 0.119998 77.0119 0.119998ZM111.351 0.68C111.244 1.61333 111.164 2.52 111.111 3.4C111.084 4.28 111.071 4.94666 111.071 5.4C111.071 5.88 111.084 6.34667 111.111 6.8C111.138 7.22667 111.164 7.58667 111.191 7.88H110.271C110.111 6.30667 109.884 5.06667 109.591 4.16C109.298 3.22667 108.791 2.57333 108.071 2.2C107.378 1.8 106.324 1.6 104.911 1.6H101.591C100.684 1.6 99.9909 1.68 99.5109 1.84C99.0576 1.97333 98.7509 2.28 98.5909 2.76C98.4309 3.21333 98.3509 3.93333 98.3509 4.92V24.76C98.3509 25.72 98.4309 26.44 98.5909 26.92C98.7509 27.4 99.0576 27.72 99.5109 27.88C99.9909 28.0133 100.684 28.08 101.591 28.08H104.511C106.191 28.08 107.458 27.8533 108.311 27.4C109.191 26.9467 109.818 26.2133 110.191 25.2C110.591 24.16 110.884 22.76 111.071 21H111.991C111.911 21.72 111.871 22.68 111.871 23.88C111.871 24.3867 111.884 25.12 111.911 26.08C111.964 27.0133 112.044 27.9867 112.151 29C110.791 28.9467 109.258 28.92 107.551 28.92C105.844 28.8933 104.324 28.88 102.991 28.88C102.404 28.88 101.644 28.88 100.711 28.88C99.8043 28.88 98.8176 28.8933 97.7509 28.92C96.6843 28.92 95.6043 28.9333 94.5109 28.96C93.4176 28.96 92.3776 28.9733 91.3909 29V28.2C92.2976 28.1467 92.9776 28.04 93.4309 27.88C93.9109 27.72 94.2309 27.4 94.3909 26.92C94.5509 26.44 94.6309 25.72 94.6309 24.76V4.92C94.6309 3.93333 94.5509 3.21333 94.3909 2.76C94.2309 2.28 93.9109 1.96 93.4309 1.8C92.9776 1.61333 92.2976 1.50667 91.3909 1.48V0.68C92.3776 0.706666 93.4176 0.733332 94.5109 0.759999C95.6043 0.759999 96.6843 0.773332 97.7509 0.799998C98.8176 0.799998 99.8043 0.799998 100.711 0.799998C101.644 0.799998 102.404 0.799998 102.991 0.799998C104.218 0.799998 105.604 0.799998 107.151 0.799998C108.724 0.773332 110.124 0.733332 111.351 0.68ZM104.471 14.36C104.471 14.36 104.471 14.4933 104.471 14.76C104.471 15.0267 104.471 15.16 104.471 15.16H97.1509C97.1509 15.16 97.1509 15.0267 97.1509 14.76C97.1509 14.4933 97.1509 14.36 97.1509 14.36H104.471ZM105.631 9.08C105.524 10.6 105.471 11.76 105.471 12.56C105.498 13.36 105.511 14.0933 105.511 14.76C105.511 15.4267 105.524 16.16 105.551 16.96C105.578 17.76 105.644 18.92 105.751 20.44H104.831C104.724 19.5867 104.591 18.76 104.431 17.96C104.298 17.1333 103.978 16.4667 103.471 15.96C102.991 15.4267 102.164 15.16 100.991 15.16V14.36C101.871 14.36 102.538 14.1867 102.991 13.84C103.471 13.4667 103.818 13 104.031 12.44C104.244 11.88 104.391 11.3067 104.471 10.72C104.551 10.1067 104.631 9.56 104.711 9.08H105.631Z" fill="black"/>
</svg>
